<svg width="280" height="42" viewBox="0 0 280 42" fill="none" xmlns="http://www.w3.org/2000/svg">
<path d="M63.2903 0.639344V40.7512H76.2996C88.3359 40.7512 95.3131 33.3849 95.3131 20.6814C95.3131 8.00569 88.3081 0.639344 76.2996 0.639344H63.2903ZM67.0986 4.08624H76.0772C85.9453 4.08624 91.4493 10.0349 91.4493 20.7092C91.4493 31.3556 85.9453 37.3043 76.0772 37.3043H67.0986V4.08624Z" fill="white"/>
<path d="M107.359 40.7512V0.639344H103.578V40.7512H107.359Z" fill="white"/>
<path d="M115.262 30.0491C115.679 36.8317 121.545 41.3905 130.106 41.3905C138.807 41.3905 144.533 36.804 144.533 29.6878C144.533 24.1283 141.225 20.9871 132.97 19.1247L128.605 18.124C122.657 16.7897 120.183 14.4825 120.183 10.841C120.183 6.28225 124.491 3.4469 129.912 3.4469C135.61 3.4469 139.585 6.50463 139.975 11.0912H143.783C143.56 4.64219 137.806 0 129.995 0C122.128 0 116.291 4.531 116.291 11.0078C116.291 16.5395 119.627 19.9586 127.605 21.7377L131.969 22.7106C138.14 24.1283 140.642 26.4077 140.642 30.1881C140.642 34.7469 136.333 37.9436 130.301 37.9436C124.019 37.9436 119.543 34.8581 119.071 30.0491H115.262Z" fill="white"/>
<path d="M152.465 0.639344V40.7512H156.245V25.6293H166.086C173.73 25.6293 178.984 20.5702 178.984 13.1204C178.984 5.6707 173.786 0.639344 166.113 0.639344H152.465ZM156.245 4.03064H165.224C171.423 4.03064 175.092 7.42194 175.092 13.1204C175.092 18.8189 171.395 22.238 165.224 22.238H156.245V4.03064Z" fill="white"/>
<path d="M210.682 37.3043H190.585V0.639344H186.804V40.7512H210.682V37.3043Z" fill="white"/>
<path d="M245.077 40.7512H249.08L234.097 0.639344H230.317L215.306 40.7512H219.337L223.784 28.4647H240.629L245.077 40.7512ZM232.123 5.33713H232.29L239.49 25.1846H224.924L232.123 5.33713Z" fill="white"/>
<path d="M265.629 40.7512V23.4055L280 0.639344H275.664L263.794 19.6807H263.655L251.785 0.639344H247.449L261.82 23.4055V40.7512H265.629Z" fill="white"/>
<path d="M0.0286837 41.3905H12.879L19.9638 28.9131H20.222L27.3355 41.3905H40.8742L28.11 20.7096V20.4801L40.9316 0H27.4503L20.9104 13.1945H20.6809L14.1697 0H0L12.2192 20.4228V20.6522L0.0286837 41.3905Z" fill="white"/>
</svg>
