<svg width="50" height="50" viewBox="0 0 50 50" fill="none" xmlns="http://www.w3.org/2000/svg">
<path d="M24.2188 24.5422V27.3438H25.7812V23.8953L22.4273 20.5414L21.3227 21.6461L24.2188 24.5422Z" fill="#DEB07A"/>
<path fill-rule="evenodd" clip-rule="evenodd" d="M25 14.8438C30.1695 14.8438 34.375 19.0492 34.375 24.2188C34.375 27.2875 32.8859 30.0086 30.6 31.7195L35.9375 31.3078V23.8281C35.9375 22.3203 37.1641 21.0938 38.6719 21.0938C40.1797 21.0938 41.4062 22.3203 41.4062 23.8281V32.5945C41.4062 34.45 40.0859 36.0609 38.2664 36.425L33.5938 37.3594V49.2188H16.4062V37.3594L11.7336 36.425C9.91406 36.0617 8.59375 34.45 8.59375 32.5945V23.8281C8.59375 22.3203 9.82031 21.0938 11.3281 21.0938C12.8359 21.0938 14.0625 22.3203 14.0625 23.8281V31.3078L19.3984 31.718C17.1133 30.007 15.625 27.2867 15.625 24.2188C15.625 19.0492 19.8305 14.8438 25 14.8438ZM28.125 37.5C28.125 36.0016 28.6195 34.5609 29.4867 33.3711L28.2289 33.468L25 38.0812L21.7695 33.4656L20.5125 33.3695C21.3797 34.5594 21.875 36.0008 21.875 37.5V47.6562H28.125V37.5ZM25 35.3563L26.2352 33.5914L25.0227 33.593C25.0187 33.593 25.0149 33.5932 25.0111 33.5934C25.0074 33.5936 25.0038 33.5938 25 33.5938C24.993 33.5938 24.9859 33.593 24.9789 33.593L23.7664 33.5938L25 35.3563ZM24.2188 31.9914V30.4688H25.7812V31.9914C27.35 31.8352 28.7828 31.2117 29.9406 30.2641L28.8672 29.1906L29.9719 28.0859L31.0453 29.1594C31.993 28.0023 32.6164 26.5688 32.7727 25H31.25V23.4375H32.7727C32.6164 21.8687 31.993 20.4359 31.0453 19.2781L29.9719 20.3516L28.8672 19.2469L29.9406 18.1734C28.7828 17.2258 27.35 16.6023 25.7812 16.4461V17.9688H24.2188V16.4461C22.65 16.6023 21.2172 17.2258 20.0594 18.1734L21.1328 19.2469L20.0281 20.3516L18.9547 19.2781C18.007 20.4352 17.3836 21.8687 17.2273 23.4375H18.75V25H17.2273C17.3836 26.5688 18.007 28.0016 18.9547 29.1594L20.0281 28.0859L21.1328 29.1906L20.0594 30.2641C21.2172 31.2117 22.65 31.8352 24.2188 31.9914ZM10.1562 32.5945C10.1562 33.7078 10.9484 34.675 12.0406 34.893L17.9688 36.0781V47.6562H20.3125V37.5C20.3125 35.818 19.518 34.2258 18.1883 33.1914L13.943 32.8656C13.1336 32.8039 12.5 32.1195 12.5 31.3078V23.8281C12.5 23.182 11.9742 22.6562 11.3281 22.6562C10.682 22.6562 10.1562 23.182 10.1562 23.8281V32.5945ZM37.5 31.3078C37.5 32.1195 36.8664 32.8039 36.057 32.8656L31.8102 33.1922C30.4812 34.2273 29.6875 35.8187 29.6875 37.5V47.6562H32.0312V36.0781L37.9594 34.893C39.0516 34.675 39.8438 33.7086 39.8438 32.5945V23.8281C39.8438 23.182 39.318 22.6562 38.6719 22.6562C38.0258 22.6562 37.5 23.182 37.5 23.8281V31.3078Z" fill="#DEB07A"/>
<path fill-rule="evenodd" clip-rule="evenodd" d="M6 11.6949V11.0565H7.11299V9.9774H6V9.33333H7.11299V5H9.81921C11.4181 5 12.4576 6.06215 12.4576 7.49718C12.4576 8.92655 11.3955 9.9774 9.77966 9.9774H8.36158V11.0565H10.6271V11.6949H8.36158V13H7.11299V11.6949H6ZM9.46893 6.0565H8.36158V8.9548H9.46893C10.6102 8.9548 11.1864 8.39548 11.1864 7.50282C11.1864 6.61582 10.6158 6.0565 9.46893 6.0565Z" fill="#DEB07A"/>
<path fill-rule="evenodd" clip-rule="evenodd" d="M0.78125 9.375C0.78125 4.63672 4.63672 0.78125 9.375 0.78125C14.1133 0.78125 17.9688 4.63672 17.9688 9.375C17.9688 14.1133 14.1133 17.9688 9.375 17.9688C4.63672 17.9688 0.78125 14.1133 0.78125 9.375ZM2.34375 9.375C2.34375 13.2523 5.49844 16.4062 9.375 16.4062C13.2516 16.4062 16.4062 13.2523 16.4062 9.375C16.4062 5.49766 13.2516 2.34375 9.375 2.34375C5.49844 2.34375 2.34375 5.49766 2.34375 9.375Z" fill="#DEB07A"/>
<path fill-rule="evenodd" clip-rule="evenodd" d="M35.1562 10.1562C35.1562 7.57109 37.2586 5.46875 39.8438 5.46875C42.4289 5.46875 44.5312 7.57109 44.5312 10.1562C44.5312 12.7414 42.4289 14.8438 39.8438 14.8438C37.2586 14.8438 35.1562 12.7414 35.1562 10.1562ZM36.7188 10.1562C36.7188 11.8797 38.1203 13.2812 39.8438 13.2812C41.5672 13.2812 42.9688 11.8797 42.9688 10.1562C42.9688 8.43281 41.5672 7.03125 39.8438 7.03125C38.1203 7.03125 36.7188 8.43281 36.7188 10.1562Z" fill="#DEB07A"/>
<path fill-rule="evenodd" clip-rule="evenodd" d="M47.9992 5.05312L46.9445 6.90234C47.0266 7.07969 47.1008 7.25781 47.168 7.43672L49.2188 7.99766V12.3156L47.168 12.8766C47.1008 13.0555 47.0258 13.2336 46.9445 13.4109L47.9992 15.2602L44.9461 18.3125L43.0984 17.257C42.9219 17.3383 42.743 17.4133 42.5633 17.4805L42.0023 19.5312H37.6852L37.1242 17.4797C36.9445 17.4125 36.7656 17.3375 36.5891 17.2563L34.7414 18.3117L31.6883 15.2594L32.743 13.4102C32.6609 13.2328 32.5867 13.0547 32.5195 12.8758L30.4688 12.3148V7.99687L32.5195 7.43594C32.5867 7.25703 32.6617 7.07891 32.743 6.90156L31.6883 5.05234L34.7414 2L36.5891 3.05547C36.7656 2.97422 36.9445 2.89922 37.1242 2.83203L37.6852 0.78125H42.0023L42.5633 2.83281C42.743 2.9 42.9219 2.975 43.0984 3.05625L44.9461 2.00078L47.9992 5.05312ZM45.943 11.5914L47.6562 11.1219V9.19063L45.943 8.72031L45.8164 8.31094C45.7055 7.95234 45.5555 7.59141 45.3695 7.23984L45.1695 6.86094L46.0516 5.31484L44.6844 3.94844L43.1383 4.83125L42.7586 4.62969C42.4109 4.44531 42.0508 4.29531 41.6891 4.18281L41.2789 4.05703L40.8102 2.34375H38.8773L38.4086 4.05703L37.9984 4.18281C37.6367 4.29453 37.2766 4.44531 36.9289 4.62969L36.5492 4.83125L35.0031 3.94844L33.6359 5.31484L34.518 6.86094L34.318 7.23984C34.132 7.59141 33.982 7.95234 33.8711 8.31094L33.7445 8.72031L32.0312 9.18984V11.1219L33.7445 11.5922L33.8711 12.0016C33.982 12.3602 34.132 12.7211 34.318 13.0727L34.518 13.4516L33.6359 14.9977L35.0031 16.3641L36.5492 15.4812L36.9289 15.6828C37.2766 15.8672 37.6367 16.0172 37.9984 16.1297L38.4086 16.2555L38.8773 17.9688H40.8102L41.2789 16.2547L41.6891 16.1289C42.0508 16.0172 42.4109 15.8664 42.7586 15.682L43.1383 15.4805L44.6844 16.3633L46.0516 14.9969L45.1695 13.4508L45.3695 13.0719C45.5555 12.7203 45.7055 12.3594 45.8164 12.0008L45.943 11.5914Z" fill="#DEB07A"/>
</svg>
