<svg width="50" height="50" viewBox="0 0 50 50" fill="none" xmlns="http://www.w3.org/2000/svg">
<path d="M37.5 44.5312H39.0625V46.0938H37.5V44.5312ZM37.5 42.9688H39.0625V41.4062H37.5V42.9688ZM37.5 39.8438H39.0625V38.2812H37.5V39.8438ZM10.9375 5.46875H12.5V3.90625H10.9375V5.46875ZM10.9375 8.59375H12.5V7.03125H10.9375V8.59375ZM10.9375 11.7188H12.5V10.1562H10.9375V11.7188ZM36.7188 25C36.7188 31.4617 31.4617 36.7188 25 36.7188C18.5383 36.7188 13.2812 31.4617 13.2812 25C13.2812 18.5383 18.5383 13.2812 25 13.2812C31.4617 13.2812 36.7188 18.5383 36.7188 25ZM35.1562 25C35.1562 19.4 30.6 14.8438 25 14.8438C19.4 14.8438 14.8438 19.4 14.8438 25C14.8438 30.6 19.4 35.1562 25 35.1562C30.6 35.1562 35.1562 30.6 35.1562 25ZM30.4688 25.7812H32.0312V24.2188H30.4688V25.7812ZM17.9688 25.7812H19.5312V24.2188H17.9688V25.7812ZM47.6562 25H49.2188V34.8961C49.2188 35.7359 48.9414 36.568 48.4375 37.2398L46.875 39.3234V49.2188H34.375V37.7602L33.7672 36.95C31.307 38.7602 28.2812 39.8438 25 39.8438C19.1836 39.8438 14.1516 36.4727 11.7188 31.5891V32.8125C11.7188 34.1047 10.6672 35.1562 9.375 35.1562C8.29453 35.1562 7.39141 34.418 7.12188 33.4219C6.85156 33.5305 6.55859 33.5938 6.25 33.5938C4.95781 33.5938 3.90625 32.5422 3.90625 31.25V24.5656C3.44453 24.8344 2.91563 25 2.34375 25H0.78125V15.1039C0.78125 14.2641 1.05859 13.432 1.5625 12.7602L3.125 10.6766V0.78125H15.625V12.2398L16.2328 13.05C18.693 11.2398 21.7188 10.1562 25 10.1562C30.8164 10.1562 35.8484 13.5273 38.2812 18.4109V17.1875C38.2812 15.8953 39.3328 14.8438 40.625 14.8438C41.7055 14.8438 42.6086 15.582 42.8781 16.5781C43.1484 16.4695 43.4414 16.4062 43.75 16.4062C45.0422 16.4062 46.0938 17.4578 46.0938 18.75V25.4344C46.5555 25.1656 47.0844 25 47.6562 25ZM10.1562 25C10.1562 20.6578 12.0414 16.7578 15.0234 14.0414L14.0625 12.7602V2.34375H4.6875V11.1977L2.8125 13.6977C2.51016 14.1008 2.34375 14.6 2.34375 15.1039V23.4375C3.20547 23.4375 3.90625 22.7367 3.90625 21.875V20.3125V18.2672L5.53438 17.4531C6.55547 16.9422 7.3 16.0141 7.57734 14.9062L7.83594 13.8727L9.35156 14.2516L9.09297 15.2852C8.70547 16.8359 7.6625 18.1352 6.23281 18.85L5.46875 19.2328V20.3125V21.875V31.25C5.46875 31.6805 5.81953 32.0312 6.25 32.0312C6.68047 32.0312 7.03125 31.6805 7.03125 31.25V25.7812V25H8.59375V25.7812V31.25V32.8125C8.59375 33.243 8.94453 33.5938 9.375 33.5938C9.80547 33.5938 10.1562 33.243 10.1562 32.8125V25ZM25 38.2812C32.3234 38.2812 38.2812 32.3234 38.2812 25C38.2812 17.6766 32.3234 11.7188 25 11.7188C17.6766 11.7188 11.7188 17.6766 11.7188 25C11.7188 32.3234 17.6766 38.2812 25 38.2812ZM47.6562 26.5625C46.7945 26.5625 46.0938 27.2633 46.0938 28.125V29.6875V31.7328L44.4656 32.5469C43.4445 33.0578 42.7 33.9859 42.4227 35.0938L42.1641 36.1273L40.6484 35.7484L40.907 34.7148C41.2945 33.1641 42.3375 31.8648 43.7672 31.15L44.5312 30.7672V29.6875V28.125V18.75C44.5312 18.3195 44.1805 17.9688 43.75 17.9688C43.3195 17.9688 42.9688 18.3195 42.9688 18.75V24.2188V25H41.4062V24.2188V18.75V17.1875C41.4062 16.757 41.0555 16.4062 40.625 16.4062C40.1945 16.4062 39.8438 16.757 39.8438 17.1875V25C39.8438 29.3422 37.9586 33.2422 34.9766 35.9586L35.9375 37.2398V47.6562H45.3125V38.8023L47.1875 36.3023C47.4898 35.8992 47.6562 35.4 47.6562 34.8961V26.5625ZM35.4656 9.43984C35.8992 9.73203 36.3273 10.0477 36.7375 10.3773L37.7164 9.15938C37.2719 8.80156 36.8086 8.46016 36.3391 8.14375L35.4656 9.43984ZM21.5094 5.00469C25.9937 4.23203 30.7594 4.98828 34.7508 7.17656L34 8.54687C30.3359 6.53906 25.9633 5.83906 21.8469 6.53125C21.7055 7.68984 20.7273 8.59375 19.5312 8.59375C18.2391 8.59375 17.1875 7.54219 17.1875 6.25C17.1875 4.95781 18.2391 3.90625 19.5312 3.90625C20.3648 3.90625 21.0938 4.34688 21.5094 5.00469ZM20.3125 6.25C20.3125 5.81953 19.9617 5.46875 19.5312 5.46875C19.1008 5.46875 18.75 5.81953 18.75 6.25C18.75 6.68047 19.1008 7.03125 19.5312 7.03125C19.9617 7.03125 20.3125 6.68047 20.3125 6.25ZM13.2617 39.6219L12.2828 40.8398C12.7273 41.1977 13.1906 41.5391 13.6602 41.8555L14.5336 40.5602C14.1 40.2672 13.6719 39.9516 13.2617 39.6219ZM25 45.3125C21.5914 45.3125 18.2203 44.4516 15.25 42.8234L16.0008 41.4531C19.6641 43.4609 24.0375 44.1609 28.1539 43.468C28.2945 42.3102 29.2727 41.4062 30.4688 41.4062C31.7609 41.4062 32.8125 42.4578 32.8125 43.75C32.8125 45.0422 31.7609 46.0938 30.4688 46.0938C29.6391 46.0938 28.9133 45.6578 28.4969 45.0063C27.3461 45.2055 26.1734 45.3125 25 45.3125ZM29.6875 43.75C29.6875 44.1805 30.0383 44.5312 30.4688 44.5312C30.8992 44.5312 31.25 44.1805 31.25 43.75C31.25 43.3195 30.8992 42.9688 30.4688 42.9688C30.0383 42.9688 29.6875 43.3195 29.6875 43.75Z" fill="#DEB07A"/>
<path d="M22 26.5565V27.1949H23.113V28.5H24.3616V27.1949H26.6271V26.5565H24.3616V25.4774H25.7797C27.3955 25.4774 28.4576 24.4266 28.4576 22.9972C28.4576 21.5621 27.4181 20.5 25.8192 20.5H23.113V24.8333H22V25.4774H23.113V26.5565H22ZM24.3616 21.5565H25.4689C26.6158 21.5565 27.1864 22.1158 27.1864 23.0028C27.1864 23.8955 26.6102 24.4548 25.4689 24.4548H24.3616V21.5565Z" fill="#DEB07A"/>
</svg>
