<svg width="50" height="50" viewBox="0 0 50 50" fill="none" xmlns="http://www.w3.org/2000/svg">
<path d="M5.46875 41.4062H3.90625V39.8438H5.46875V41.4062ZM7.03125 39.8438V41.4062H8.59375V39.8438H7.03125ZM3.90625 46.0938H5.46875V44.5312H3.90625V46.0938ZM2.34375 44.5312H0.78125V46.0938H2.34375V44.5312ZM14.657 29.6781C14.9688 30.1359 15.3141 30.5773 15.6828 30.9898L16.8469 29.9477C16.5234 29.5867 16.2211 29.2008 15.9492 28.7992L14.657 29.6781ZM14.6484 26.1992L13.1695 26.7039C13.3484 27.2266 13.5648 27.7438 13.8133 28.2422L15.2109 27.5422C14.993 27.1078 14.8039 26.6562 14.6484 26.1992ZM36.1578 28.2961L34.7648 27.5898C34.5453 28.0234 34.2938 28.4453 34.0203 28.8437L35.3078 29.7289C35.6211 29.2727 35.907 28.7914 36.1578 28.2961ZM37.2508 25.1555L35.7188 24.8445C35.6227 25.3211 35.493 25.7937 35.3344 26.2492L36.8102 26.7633C36.9914 26.2414 37.1391 25.7 37.2508 25.1555ZM22.6562 35.1562V33.5938H21.0938V35.1562H22.6562ZM25.7812 33.5938H24.2188V35.1562H25.7812V33.5938ZM28.9062 33.5938H27.3438V35.1562H28.9062V33.5938ZM49.2188 6.25C49.2188 9.26484 46.7648 11.7188 43.75 11.7188H40.2227C42.5063 14.8945 43.75 18.7203 43.75 22.6562C43.75 30.3359 39.107 36.9484 32.4828 39.8438H39.0625V36.9008L49.1742 42.9688L39.0625 49.0367V46.0938H7.03125V44.5312H40.625V46.2758L46.1383 42.9688L40.625 39.6617V41.4062H10.1562V39.8438H17.5172C10.893 36.9484 6.25 30.3359 6.25 22.6562C6.25 18.7203 7.49375 14.8945 9.77734 11.7188H6.25C3.23516 11.7188 0.78125 9.26484 0.78125 6.25C0.78125 3.23516 3.23516 0.78125 6.25 0.78125H9.375C12.3898 0.78125 14.8438 3.23516 14.8438 6.25V6.89609C17.8703 4.93594 21.3508 3.90625 25 3.90625C28.6492 3.90625 32.1297 4.93594 35.1562 6.89609V6.25C35.1562 3.23516 37.6102 0.78125 40.625 0.78125H43.75C46.7648 0.78125 49.2188 3.23516 49.2188 6.25ZM25.7812 20.9594C25.7812 20.0523 25.5031 19.1594 25 18.4117C24.4969 19.1594 24.2188 20.0523 24.2188 20.9594V30.5016C24.4789 30.4898 24.7367 30.4688 25 30.4688C25.2633 30.4688 25.5211 30.4898 25.7812 30.5023V20.9594ZM17.3055 34.4125C19.5187 35.8656 22.1602 36.7188 25 36.7188C27.8398 36.7188 30.4812 35.8656 32.6945 34.4125C30.9406 32.9297 28.0922 32.0312 25 32.0312C21.9078 32.0312 19.0594 32.9297 17.3055 34.4125ZM39.0227 23.4375H34.375V22.6562C34.375 17.4867 30.1695 13.2812 25 13.2812C19.8305 13.2812 15.625 17.4867 15.625 22.6562V23.4375H10.9773C11.2 27.4656 13.1102 31.0508 16.0297 33.4758C17.6016 32.0258 19.9758 31.0211 22.6562 30.6453V20.9594C22.6562 19.3492 23.3094 17.7734 24.4477 16.6352L25 16.0828L25.5523 16.6352C26.6906 17.7734 27.3438 19.35 27.3438 20.9594V30.6453C30.0242 31.0211 32.3984 32.025 33.9703 33.4758C36.8898 31.0508 38.8 27.4656 39.0227 23.4375ZM29.7727 12.8258L31.3359 10.1187C29.6492 9.2625 27.7711 8.74297 25.7812 8.63281V11.7563C27.2039 11.8578 28.5508 12.2305 29.7727 12.8258ZM24.2188 8.63359C22.2289 8.74375 20.35 9.26328 18.6641 10.1195L20.2273 12.8266C21.4492 12.2305 22.7961 11.8586 24.2188 11.757V8.63359ZM13.2414 14.9648L15.9555 16.532C16.7359 15.3828 17.7258 14.3906 18.875 13.6102L17.3086 10.8977C15.6898 11.9609 14.3047 13.3461 13.2414 14.9648ZM10.9773 21.875H14.0898C14.1906 20.4508 14.5664 19.1016 15.1625 17.8789L12.4625 16.3203C11.607 18.0063 11.0875 19.8852 10.9773 21.875ZM39.0227 21.875C38.9125 19.8852 38.393 18.0063 37.5367 16.3203L34.8367 17.8789C35.4328 19.1016 35.8086 20.4508 35.9094 21.875H39.0227ZM36.7586 14.9648C35.6961 13.3461 34.3102 11.9602 32.6914 10.8977L31.125 13.6102C32.2742 14.3906 33.2641 15.3828 34.0445 16.532L36.7586 14.9648ZM14.8438 8.80781V10.8062C17.5781 8.45937 21.1227 7.03125 25 7.03125C28.8773 7.03125 32.4219 8.45937 35.1562 10.8062V8.80781C32.193 6.62813 28.693 5.46875 25 5.46875C21.307 5.46875 17.807 6.62813 14.8438 8.80781ZM6.25 10.1562H13.2812V6.25C13.2812 4.09609 11.5289 2.34375 9.375 2.34375H6.25C4.09609 2.34375 2.34375 4.09609 2.34375 6.25C2.34375 8.40391 4.09609 10.1562 6.25 10.1562ZM38.2367 11.7188H36.1398C38.9102 14.5398 40.625 18.4 40.625 22.6562C40.625 31.2719 33.6156 38.2812 25 38.2812C16.3844 38.2812 9.375 31.2719 9.375 22.6562C9.375 18.4 11.0898 14.5398 13.8602 11.7188H11.7633C9.21953 14.7953 7.8125 18.6602 7.8125 22.6562C7.8125 32.1336 15.5227 39.8438 25 39.8438C34.4773 39.8438 42.1875 32.1336 42.1875 22.6562C42.1875 18.6602 40.7805 14.7953 38.2367 11.7188ZM47.6562 6.25C47.6562 4.09609 45.9039 2.34375 43.75 2.34375H40.625C38.4711 2.34375 36.7188 4.09609 36.7188 6.25V10.1562H43.75C45.9039 10.1562 47.6562 8.40391 47.6562 6.25ZM44.5312 7.03125H46.0938V5.46875H44.5312V7.03125ZM41.4062 7.03125H42.9688V5.46875H41.4062V7.03125ZM38.2812 7.03125H39.8438V5.46875H38.2812V7.03125ZM3.90625 7.03125H5.46875V5.46875H3.90625V7.03125ZM7.03125 7.03125H8.59375V5.46875H7.03125V7.03125ZM10.1562 7.03125H11.7188V5.46875H10.1562V7.03125Z" fill="#DEB07A"/>
</svg>
