<svg width="15" height="15" viewBox="0 0 15 15" fill="none" xmlns="http://www.w3.org/2000/svg">
<g clip-path="url(#clip0)">
<path d="M6.78314 7.44972L0.14376 14.0891C-0.0406934 14.2735 -0.0406934 14.5724 0.14376 14.7568C0.235869 14.8492 0.356807 14.8951 0.47751 14.8951C0.598447 14.8951 0.719151 14.8492 0.81126 14.7568L7.50056 8.06753L14.1899 14.7568C14.2822 14.8492 14.4029 14.8951 14.5236 14.8951C14.6443 14.8951 14.7652 14.8492 14.8574 14.7568C15.0418 14.5724 15.0418 14.2735 14.8574 14.0891L8.21821 7.44972L14.8618 0.805654C15.0463 0.621201 15.0463 0.322373 14.8618 0.13792C14.6774 -0.0462988 14.3785 -0.0462988 14.1943 0.13792L7.50079 6.8319L0.806572 0.138154C0.622119 -0.0460645 0.323525 -0.0460645 0.139072 0.138154C-0.0453809 0.322607 -0.0453809 0.621436 0.139072 0.805889L6.78314 7.44972Z" fill="#1D1D1B" fill-opacity="0.5"/>
</g>
<defs>
<clipPath id="clip0">
<rect width="15" height="15" fill="white"/>
</clipPath>
</defs>
</svg>
