<?xml version="1.0" encoding="utf-8"?>
<!-- Generator: Adobe Illustrator 22.0.1, SVG Export Plug-In . SVG Version: 6.00 Build 0)  -->
<svg version="1.1" id="Слой_1" xmlns="http://www.w3.org/2000/svg" xmlns:xlink="http://www.w3.org/1999/xlink" x="0px" y="0px"
	 viewBox="0 0 1643.6 243.4" style="enable-background:new 0 0 1643.6 243.4;" xml:space="preserve">
<style type="text/css">
	.st0{fill:#FFFFFF;}
</style>
<path class="st0" d="M371.3,4v235.3h76.5c70.5,0,111.8-43.3,111.8-117.8S518.3,3.6,447.9,3.6h-76.5V4H371.3z M394,24.3h52.6
	c57.9,0,90.3,34.8,90.3,97.6c0,62.4-32.4,97.6-90.3,97.6H394V24.3z"/>
<path class="st0" d="M630.1,239.7V4h-22.3v235.3h22.3V239.7z"/>
<path class="st0" d="M676.6,177c2.4,39.7,36.8,66.4,87.1,66.4c51,0,84.6-26.7,84.6-68.8c0-32.8-19.4-51-68-62l-25.5-6.1
	C720,98.8,705.4,85,705.4,63.6c0-26.7,25.1-43.3,57.1-43.3c33.6,0,56.7,17.8,59.1,44.9h22.3C842.7,27.5,808.6,0,762.9,0
	c-46.2,0-80.6,26.7-80.6,64.8c0,32.4,19.4,52.6,66.4,63.2l25.5,5.7c36,8.5,51,21.9,51,43.7c0,26.7-25.1,45.4-60.7,45.4
	c-36.8,0-63.2-18.2-66-46.2h-21.9L676.6,177L676.6,177z"/>
<path class="st0" d="M894.9,4v235.3h22.3V151h57.9c44.9,0,75.7-29.6,75.7-73.3s-30.4-73.3-75.7-73.3h-80.2V4z M917.2,23.9h52.6
	c36.4,0,57.9,19.8,57.9,53.4s-21.9,53.5-57.9,53.5h-52.6L917.2,23.9L917.2,23.9z"/>
<path class="st0" d="M1236.6,219.5h-117.8V4h-22.3v235.3h140.1L1236.6,219.5L1236.6,219.5z"/>
<path class="st0" d="M1438.7,239.7h23.5L1373.9,4h-22.3l-88.3,235.3h23.5l25.9-72.1h98.8L1438.7,239.7z M1362.6,31.6h0.8l42.1,116.6
	h-85.4L1362.6,31.6z"/>
<path class="st0" d="M1559.4,239.7v-102L1643.6,4h-25.5l-69.6,111.8h-0.8L1478,4h-25.5l84.2,133.6v101.6h22.7L1559.4,239.7
	L1559.4,239.7z"/>
<polygon class="st0" points="0.2,243.4 75.6,243.4 117.2,170.2 118.7,170.2 160.5,243.4 240,243.4 165,122 165,120.7 240.3,0.4 
	161.2,0.4 122.8,77.8 121.5,77.8 83.2,0.4 0,0.4 71.7,120.3 71.7,121.6 "/>
</svg>
