<svg width="175" height="42" viewBox="0 0 175 42" fill="none" xmlns="http://www.w3.org/2000/svg">
<rect width="175" height="42" fill="#030303"/>
<path d="M50.582 10.3089V29.6911H56.8681C62.6841 29.6911 66.0555 26.1316 66.0555 19.9933C66.0555 13.8684 62.6707 10.3089 56.8681 10.3089H50.582ZM52.4222 11.9745H56.7607C61.529 11.9745 64.1885 14.8489 64.1885 20.0067C64.1885 25.1511 61.529 28.0255 56.7607 28.0255H52.4222V11.9745Z" fill="white"/>
<path d="M71.876 29.6911V10.3089H70.0492V29.6911H71.876Z" fill="white"/>
<path d="M75.6951 24.5198C75.8966 27.7972 78.7307 30 82.8677 30C87.0718 30 89.8388 27.7837 89.8388 24.3452C89.8388 21.6588 88.2404 20.141 84.2512 19.2411L82.1424 18.7576C79.2679 18.1128 78.0725 16.998 78.0725 15.2384C78.0725 13.0356 80.1544 11.6655 82.7737 11.6655C85.5272 11.6655 87.4479 13.143 87.636 15.3593H89.4761C89.3687 12.2431 86.5883 10 82.8139 10C79.0127 10 76.1921 12.1894 76.1921 15.319C76.1921 17.9919 77.8039 19.6441 81.6588 20.5037L83.7676 20.9738C86.7495 21.6588 87.9583 22.7602 87.9583 24.587C87.9583 26.7898 85.8764 28.3345 82.9617 28.3345C79.9261 28.3345 77.7636 26.8435 77.5352 24.5198H75.6951Z" fill="white"/>
<path d="M93.6713 10.3089V29.6911H95.4981V22.3842H100.253C103.947 22.3842 106.485 19.9396 106.485 16.3398C106.485 12.7401 103.974 10.3089 100.266 10.3089H93.6713ZM95.4981 11.9476H99.8366C102.832 11.9476 104.605 13.5863 104.605 16.3398C104.605 19.0934 102.818 20.7455 99.8366 20.7455H95.4981V11.9476Z" fill="white"/>
<path d="M121.802 28.0255H112.091V10.3089H110.264V29.6911H121.802V28.0255Z" fill="white"/>
<path d="M138.422 29.6911H140.356L133.116 10.3089H131.289L124.036 29.6911H125.984L128.133 23.7542H136.273L138.422 29.6911ZM132.163 12.5789H132.243L135.722 22.1692H128.684L132.163 12.5789Z" fill="white"/>
<path d="M148.352 29.6911V21.3096L155.297 10.3089H153.201L147.466 19.5097H147.399L141.663 10.3089H139.568L146.512 21.3096V29.6911H148.352Z" fill="white"/>
<path d="M20.0139 30H26.2231L29.6466 23.9709H29.7713L33.2086 30H39.7505L33.5828 20.0069V19.896L39.7782 10H33.264L30.104 16.3756H29.9931L26.8468 10H20L25.9044 19.8683V19.9792L20.0139 30Z" fill="white"/>
</svg>
