<svg width="20" height="20" viewBox="0 0 20 20" fill="none" xmlns="http://www.w3.org/2000/svg">
<path d="M20 0H0V20H20V0Z" fill="#7D3DAF"/>
<path d="M16.3252 6.44701L16.3213 6.43121C16.0018 5.13966 14.5615 3.75375 13.2388 3.46542L13.2239 3.46235C11.0844 3.05422 8.91517 3.05422 6.77619 3.46235L6.76083 3.46542C5.43856 3.75375 3.99823 5.13966 3.67831 6.43121L3.6748 6.44701C3.27983 8.2507 3.27983 10.0799 3.6748 11.8835L3.67831 11.8993C3.98459 13.1358 5.31765 14.458 6.59099 14.8216V16.2634C6.59099 16.7852 7.22689 17.0415 7.58851 16.6649L9.04924 15.1465C9.36605 15.1643 9.68304 15.1741 10 15.1741C11.077 15.1741 12.1544 15.0723 13.2239 14.8682L13.2388 14.8652C14.5615 14.5768 16.0018 13.1909 16.3213 11.8994L16.3252 11.8836C16.7202 10.0799 16.7202 8.2507 16.3252 6.44701ZM15.1693 11.622C14.956 12.4646 13.8624 13.5121 12.9935 13.7057C11.8559 13.922 10.7093 14.0145 9.56393 13.9827C9.54115 13.9821 9.51925 13.9909 9.50337 14.0073C9.34082 14.1741 8.43682 15.1021 8.43682 15.1021L7.30238 16.2664C7.21943 16.3529 7.07373 16.294 7.07373 16.1747V13.7863C7.07373 13.7469 7.04556 13.7134 7.00681 13.7058C7.00659 13.7057 7.00637 13.7057 7.00615 13.7056C6.13722 13.5121 5.04403 12.4646 4.8303 11.6219C4.47483 9.9916 4.47483 8.33887 4.8303 6.70852C5.04403 5.86592 6.13722 4.81837 7.00615 4.62484C8.99285 4.24698 11.0072 4.24698 12.9935 4.62484C13.8628 4.81837 14.956 5.86592 15.1693 6.70852C15.5252 8.33891 15.5252 9.99164 15.1693 11.622Z" fill="white"/>
<path d="M11.8902 12.7246C11.7567 12.684 11.6293 12.6568 11.5111 12.6077C10.286 12.0994 9.15849 11.4437 8.26538 10.4385C7.75749 9.8669 7.35997 9.22156 7.02394 8.53861C6.86459 8.21474 6.7303 7.87818 6.59342 7.54381C6.46861 7.2389 6.65245 6.92389 6.84603 6.69415C7.02767 6.47854 7.2614 6.31353 7.51454 6.19192C7.71211 6.09699 7.90701 6.15172 8.0513 6.31919C8.36324 6.68124 8.64977 7.06182 8.88179 7.4815C9.02446 7.73963 8.98532 8.05517 8.72675 8.23084C8.6639 8.27354 8.60663 8.32366 8.54809 8.37189C8.49674 8.41415 8.44842 8.45685 8.41323 8.51408C8.34889 8.61879 8.34582 8.74229 8.38725 8.85613C8.70612 9.73243 9.24359 10.4138 10.1256 10.7809C10.2667 10.8396 10.4085 10.908 10.5711 10.889C10.8434 10.8572 10.9316 10.5585 11.1224 10.4024C11.3089 10.2499 11.5472 10.2479 11.7481 10.3751C11.9491 10.5022 12.1439 10.6388 12.3375 10.7767C12.5276 10.9122 12.7168 11.0447 12.8921 11.199C13.0607 11.3475 13.1188 11.5423 13.0238 11.7438C12.8501 12.1127 12.5972 12.4197 12.2324 12.6157C12.1294 12.6709 12.0064 12.6888 11.8902 12.7246C11.7567 12.684 12.0064 12.6888 11.8902 12.7246Z" fill="white"/>
<path d="M10.0034 5.76971C11.6059 5.8146 12.922 6.87808 13.2041 8.46235C13.2521 8.7323 13.2693 9.00829 13.2906 9.28227C13.2996 9.39751 13.2344 9.50701 13.11 9.5085C12.9815 9.51004 12.9237 9.40256 12.9154 9.28736C12.8989 9.05933 12.8874 8.83029 12.856 8.60415C12.6901 7.41042 11.7383 6.42282 10.5501 6.21089C10.3713 6.17899 10.1883 6.1706 10.0071 6.1516C9.89265 6.13958 9.74269 6.13264 9.71732 5.99032C9.69604 5.871 9.79676 5.77599 9.91038 5.76989C9.94127 5.76817 9.97234 5.76958 10.0034 5.76971C11.6059 5.8146 9.97234 5.76958 10.0034 5.76971Z" fill="white"/>
<path d="M12.4387 8.92715C12.436 8.94716 12.4346 8.9942 12.4229 9.03853C12.3804 9.19941 12.1365 9.21956 12.0803 9.05718C12.0637 9.00899 12.0612 8.95418 12.0611 8.90231C12.0605 8.56289 11.9867 8.22383 11.8156 7.92853C11.6396 7.62501 11.3708 7.36986 11.0556 7.21547C10.8649 7.12213 10.6588 7.06411 10.4498 7.02953C10.3585 7.01443 10.2662 7.00526 10.1744 6.99249C10.0632 6.97704 10.0039 6.90617 10.0091 6.79659C10.014 6.69389 10.0891 6.62003 10.201 6.62635C10.5688 6.64724 10.924 6.72672 11.2509 6.89985C11.9158 7.25194 12.2956 7.80771 12.4064 8.54982C12.4114 8.58343 12.4195 8.61674 12.422 8.65049C12.4283 8.73383 12.4323 8.81726 12.4387 8.92715C12.436 8.94716 12.4323 8.81726 12.4387 8.92715Z" fill="white"/>
<path d="M11.4419 8.8879C11.3078 8.89031 11.2361 8.8161 11.2223 8.69318C11.2127 8.60747 11.2051 8.52062 11.1846 8.43724C11.1443 8.27302 11.057 8.12082 10.9189 8.02019C10.8537 7.97266 10.7798 7.93804 10.7024 7.9157C10.604 7.88731 10.5019 7.89512 10.4038 7.87107C10.2972 7.84496 10.2383 7.75868 10.255 7.65871C10.2703 7.56773 10.3588 7.49672 10.4582 7.50392C11.0795 7.54877 11.5235 7.86997 11.5869 8.60137C11.5913 8.65298 11.5966 8.70753 11.5852 8.7569C11.5655 8.84142 11.503 8.88377 11.4419 8.8879C11.3078 8.89031 11.503 8.88377 11.4419 8.8879Z" fill="white"/>
</svg>
