<svg width="20" height="20" viewBox="0 0 20 20" fill="none" xmlns="http://www.w3.org/2000/svg">
<path d="M20 0H0V20H20V0Z" fill="#1BD741"/>
<path d="M3.00587 17.0019L3.98553 13.5225C3.35555 12.4523 3.02387 11.2346 3.02387 9.98367C3.02387 6.13205 6.15738 2.99854 10.009 2.99854C13.8606 2.99854 16.9941 6.13205 16.9941 9.98367C16.9941 13.8353 13.8606 16.9688 10.009 16.9688C8.80886 16.9688 7.63369 16.6616 6.59409 16.0783L3.00587 17.0019ZM6.77753 14.8075L6.99134 14.938C7.89775 15.4914 8.94126 15.7839 10.009 15.7839C13.2072 15.7839 15.8092 13.1819 15.8092 9.98367C15.8092 6.78542 13.2072 4.18344 10.009 4.18344C6.81075 4.18344 4.20878 6.78542 4.20878 9.98367C4.20878 11.0981 4.5255 12.1802 5.12462 13.1132L5.26861 13.3374L4.70446 15.3411L6.77753 14.8075Z" fill="white"/>
<path d="M8.04676 6.73256L7.59351 6.70785C7.45115 6.70008 7.3115 6.74766 7.2039 6.84113C6.98416 7.03195 6.63281 7.40085 6.5249 7.88157C6.36397 8.59835 6.61267 9.47606 7.25634 10.3538C7.90001 11.2315 9.09953 12.6358 11.2207 13.2356C11.9042 13.4289 12.4419 13.2986 12.8567 13.0332C13.1853 12.823 13.4118 12.4857 13.4934 12.1043L13.5658 11.7663C13.5888 11.6589 13.5342 11.5499 13.4344 11.5039L11.9026 10.7978C11.8031 10.752 11.6852 10.781 11.6183 10.8676L11.017 11.6472C10.9716 11.7061 10.8938 11.7295 10.8236 11.7048C10.4118 11.5601 9.03226 10.9823 8.27532 9.52425C8.24249 9.46101 8.25065 9.38426 8.29722 9.33032L8.87194 8.66545C8.93066 8.59756 8.94549 8.50211 8.91021 8.41961L8.24991 6.87479C8.21476 6.79255 8.13598 6.73743 8.04676 6.73256Z" fill="white"/>
</svg>
