<svg width="149" height="22" viewBox="0 0 149 22" fill="none" xmlns="http://www.w3.org/2000/svg">
<path d="M33.6403 0.339825V21.6602H40.555C46.9525 21.6602 50.6611 17.7448 50.6611 10.9926C50.6611 4.2552 46.9378 0.339825 40.555 0.339825H33.6403ZM35.6644 2.17193H40.4368C45.6819 2.17193 48.6074 5.33378 48.6074 11.0074C48.6074 16.6662 45.6819 19.8281 40.4368 19.8281H35.6644V2.17193Z" fill="white"/>
<path d="M57.0636 21.6602V0.339825H55.0542V21.6602H57.0636Z" fill="white"/>
<path d="M61.2646 15.9718C61.4862 19.5769 64.6038 22 69.1545 22C73.7791 22 76.8227 19.5621 76.8227 15.7797C76.8227 12.8247 75.0645 11.1551 70.6763 10.1652L68.3566 9.63331C65.1948 8.92411 63.8798 7.69778 63.8798 5.76226C63.8798 3.33915 66.1699 1.8321 69.051 1.8321C72.0799 1.8321 74.1928 3.45735 74.3996 5.89523H76.4238C76.3056 2.46743 73.2472 0 69.0954 0C64.914 0 61.8113 2.40833 61.8113 5.85091C61.8113 8.79113 63.5843 10.6085 67.8247 11.5541L70.1444 12.0712C73.4245 12.8247 74.7542 14.0363 74.7542 16.0457C74.7542 18.4688 72.4641 20.1679 69.2579 20.1679C65.9187 20.1679 63.54 18.5279 63.2888 15.9718H61.2646Z" fill="white"/>
<path d="M81.0385 0.339825V21.6602H83.0479V13.6226H88.2783C92.3414 13.6226 95.1339 10.9335 95.1339 6.97381C95.1339 3.0141 92.3709 0.339825 88.293 0.339825H81.0385ZM83.0479 2.14238H87.8202C91.1151 2.14238 93.0654 3.94493 93.0654 6.97381C93.0654 10.0027 91.1003 11.82 87.8202 11.82H83.0479V2.14238Z" fill="white"/>
<path d="M111.982 19.8281H101.3V0.339825H99.2906V21.6602H111.982V19.8281Z" fill="white"/>
<path d="M130.264 21.6602H132.392L124.428 0.339825H122.418L114.44 21.6602H116.582L118.946 15.1296H127.9L130.264 21.6602ZM123.379 2.8368H123.467L127.294 13.3862H119.552L123.379 2.8368Z" fill="white"/>
<path d="M141.188 21.6602V12.4406L148.826 0.339825H146.521L140.212 10.4607H140.139L133.83 0.339825H131.525L139.163 12.4406V21.6602H141.188Z" fill="white"/>
<path d="M0.015246 22H6.84546L10.6112 15.368H10.7484L14.5295 22H21.7256L14.9411 11.0076V10.8857L21.7561 0H14.5904L11.1143 7.01317H10.9924L7.53153 0H0L6.4948 10.8552V10.9771L0.015246 22Z" fill="white"/>
</svg>
