<svg width="30" height="30" viewBox="0 0 30 30" fill="none" xmlns="http://www.w3.org/2000/svg">
<path d="M15 30C23.2843 30 30 23.2843 30 15C30 6.71573 23.2843 0 15 0C6.71573 0 0 6.71573 0 15C0 23.2843 6.71573 30 15 30Z" fill="url(#paint0_linear)"/>
<path d="M12.25 21.875C11.764 21.875 11.8466 21.6915 11.679 21.2288L10.25 16.5257L21.25 10" fill="#C8DAEA"/>
<path d="M12.25 21.875C12.625 21.875 12.7907 21.7035 13 21.5L15 19.5552L12.5053 18.0509" fill="#A9C9DD"/>
<path d="M12.505 18.0513L18.55 22.5174C19.2398 22.898 19.7377 22.7009 19.9095 21.8769L22.3701 10.2816C22.6221 9.27154 21.9851 8.81344 21.3252 9.11304L6.87647 14.6844C5.89021 15.08 5.89596 15.6302 6.6967 15.8754L10.4046 17.0327L18.9887 11.6171C19.3939 11.3713 19.7659 11.5035 19.4606 11.7744" fill="url(#paint1_linear)"/>
<defs>
<linearGradient id="paint0_linear" x1="20.001" y1="5.001" x2="12.501" y2="22.5" gradientUnits="userSpaceOnUse">
<stop stop-color="#37AEE2"/>
<stop offset="1" stop-color="#1E96C8"/>
</linearGradient>
<linearGradient id="paint1_linear" x1="16.8756" y1="14.9998" x2="19.223" y2="20.3415" gradientUnits="userSpaceOnUse">
<stop stop-color="#EFF7FC"/>
<stop offset="1" stop-color="white"/>
</linearGradient>
</defs>
</svg>
