<svg width="30" height="30" viewBox="0 0 30 30" fill="none" xmlns="http://www.w3.org/2000/svg">
<path d="M0 30L2.06895 22.5C0.72416 20.1724 0 17.5862 0 14.8965C0 6.72416 6.72416 0 14.9483 0C23.1724 0 30 6.72416 30 14.8965C30 23.0689 23.1724 30 14.9483 30C12.3621 30 9.87932 29.1724 7.65516 27.9311L0 30Z" fill="#EDEDED"/>
<path d="M8.06904 25.2414L8.53457 25.5C10.4484 26.6896 12.6725 27.4138 15.0001 27.4138C21.7759 27.4138 27.4139 21.7758 27.4139 14.8965C27.4139 8.01721 21.7759 2.58621 14.9484 2.58621C8.12078 2.58621 2.5863 8.06894 2.5863 14.8965C2.5863 17.2758 3.25873 19.6034 4.50009 21.5689L4.81046 22.0345L3.62083 26.3793L8.06904 25.2414Z" fill="#55CD6C"/>
<path d="M10.9654 7.96553L9.9827 7.91379C9.67233 7.91379 9.36202 8.01726 9.15513 8.22416C8.6896 8.63795 7.91376 9.41379 7.70686 10.4483C7.34481 12.0001 7.91376 13.8621 9.2586 15.7242C10.6034 17.5862 13.1897 20.5862 17.7413 21.8793C19.1896 22.2931 20.3275 22.0345 21.2586 21.4655C21.9828 21 22.4482 20.2759 22.6034 19.5L22.7586 18.7758C22.8103 18.5689 22.7069 18.3103 22.5 18.2069L19.2413 16.7069C19.0344 16.6034 18.7758 16.6551 18.6207 16.862L17.3275 18.5172C17.2241 18.6207 17.0689 18.6724 16.9138 18.6207C16.0344 18.3103 13.0862 17.0689 11.4827 13.9655C11.431 13.8104 11.431 13.6551 11.5344 13.5517L12.7758 12.1552C12.8793 12.0001 12.931 11.7932 12.8793 11.6379L11.3793 8.2759C11.3275 8.12068 11.1723 7.96553 10.9654 7.96553Z" fill="#FEFEFE"/>
</svg>
